<?xml version="1.0" encoding="UTF-8"?>
<svg width="135pt" height="40pt" version="1.2" viewBox="0 0 135 40" xmlns="http://www.w3.org/2000/svg" xmlns:cc="http://creativecommons.org/ns#" xmlns:dc="http://purl.org/dc/elements/1.1/" xmlns:rdf="http://www.w3.org/1999/02/22-rdf-syntax-ns#">
 <metadata>
  <rdf:RDF>
   <cc:Work rdf:about="">
    <dc:format>image/svg+xml</dc:format>
    <dc:type rdf:resource="http://purl.org/dc/dcmitype/StillImage"/>
    <dc:title/>
   </cc:Work>
  </rdf:RDF>
 </metadata>
 <defs>
  <clipPath id="clip1">
   <path d="m32 25h12v10h-12z"/>
  </clipPath>
  <clipPath id="clip2">
   <path d="m37.012 34.273-4.125-4.1289v-.28906l4.1289-4.1289.09375.05469 4.8867 2.7773c1.3984.79297 1.3984 2.0898 0 2.8828l-4.8867 2.7773z"/>
  </clipPath>
  <clipPath id="clip3">
   <path d="m37.012 34.273-4.125-4.1289v-.28906l4.1289-4.1289.09375.05469 4.8867 2.7773c1.3984.79297 1.3984 2.0898 0 2.8828l-4.8867 2.7773-.09766.05469"/>
  </clipPath>
  <linearGradient id="linear0" x1="-.095306" x2=".33922" gradientTransform="matrix(-24.177 0 0 -24.177 41.089 30)" gradientUnits="userSpaceOnUse">
   <stop stop-color="#f8e006" offset="0"/>
   <stop stop-color="#f8e006" offset=".125"/>
   <stop stop-color="#f8e006" offset=".1875"/>
   <stop stop-color="#f8e006" offset=".21875"/>
   <stop stop-color="#f8e006" offset=".23438"/>
   <stop stop-color="#f8df06" offset=".25"/>
   <stop stop-color="#f8df06" offset=".26562"/>
   <stop stop-color="#f8de06" offset=".28125"/>
   <stop stop-color="#f8dd06" offset=".29688"/>
   <stop stop-color="#f8dc06" offset=".3125"/>
   <stop stop-color="#f8dc06" offset=".32812"/>
   <stop stop-color="#f8db06" offset=".34375"/>
   <stop stop-color="#f8da07" offset=".35938"/>
   <stop stop-color="#f8da07" offset=".375"/>
   <stop stop-color="#f8d907" offset=".39062"/>
   <stop stop-color="#f8d807" offset=".40625"/>
   <stop stop-color="#f9d807" offset=".42188"/>
   <stop stop-color="#f8d707" offset=".4375"/>
   <stop stop-color="#f8d607" offset=".45312"/>
   <stop stop-color="#f8d607" offset=".46875"/>
   <stop stop-color="#f8d507" offset=".48438"/>
   <stop stop-color="#f8d407" offset=".5"/>
   <stop stop-color="#f8d307" offset=".51562"/>
   <stop stop-color="#f8d307" offset=".53125"/>
   <stop stop-color="#f8d208" offset=".54688"/>
   <stop stop-color="#f8d108" offset=".5625"/>
   <stop stop-color="#f8d108" offset=".57812"/>
   <stop stop-color="#f8d008" offset=".59375"/>
   <stop stop-color="#f8cf08" offset=".60938"/>
   <stop stop-color="#f8ce08" offset=".625"/>
   <stop stop-color="#f8ce08" offset=".64062"/>
   <stop stop-color="#f8cd08" offset=".65625"/>
   <stop stop-color="#f8cc08" offset=".67188"/>
   <stop stop-color="#f8cc08" offset=".6875"/>
   <stop stop-color="#f8cb08" offset=".70312"/>
   <stop stop-color="#f7ca08" offset=".71875"/>
   <stop stop-color="#f7c908" offset=".73438"/>
   <stop stop-color="#f8c908" offset=".75"/>
   <stop stop-color="#f8c808" offset=".76562"/>
   <stop stop-color="#f8c708" offset=".78125"/>
   <stop stop-color="#f8c708" offset=".79688"/>
   <stop stop-color="#f8c608" offset=".8125"/>
   <stop stop-color="#f8c509" offset=".82812"/>
   <stop stop-color="#f8c509" offset=".84375"/>
   <stop stop-color="#f8c409" offset=".85938"/>
   <stop stop-color="#f8c309" offset=".875"/>
   <stop stop-color="#f8c209" offset=".89062"/>
   <stop stop-color="#f8c209" offset=".90625"/>
   <stop stop-color="#f8c109" offset=".92188"/>
   <stop stop-color="#f8c109" offset=".9375"/>
   <stop stop-color="#f8c009" offset=".95312"/>
   <stop stop-color="#f8c009" offset=".96875"/>
   <stop stop-color="#f7bf0a" offset=".98438"/>
   <stop stop-color="#f7be0a" offset="1"/>
  </linearGradient>
  <clipPath id="clip4">
   <path d="m20 30h18v13h-18z"/>
  </clipPath>
  <clipPath id="clip5">
   <path d="m37.109 34.219-4.2227-4.2188-12.453 12.453c.46094.48828 1.2227.54688 2.0781.0625l14.598-8.2969"/>
  </clipPath>
  <clipPath id="clip6">
   <path d="m37.109 34.219-4.2227-4.2188-12.453 12.453c.46094.48828 1.2227.54688 2.0781.0625l14.598-8.2969"/>
  </clipPath>
  <linearGradient id="linear1" x1="-.10085" x2=".55161" gradientTransform="matrix(-22.739 22.739 -22.739 -22.739 34.815 32.293)" gradientUnits="userSpaceOnUse">
   <stop stop-color="#ee2e41" offset="0"/>
   <stop stop-color="#ee2e41" offset=".125"/>
   <stop stop-color="#ee2e41" offset=".15625"/>
   <stop stop-color="#ee2e41" offset=".16406"/>
   <stop stop-color="#ee2e41" offset=".17188"/>
   <stop stop-color="#ee2e41" offset=".17969"/>
   <stop stop-color="#ee2e42" offset=".1875"/>
   <stop stop-color="#ed2d42" offset=".19531"/>
   <stop stop-color="#ed2d42" offset=".20312"/>
   <stop stop-color="#ed2d42" offset=".21094"/>
   <stop stop-color="#ed2d43" offset=".21875"/>
   <stop stop-color="#ed2d43" offset=".22656"/>
   <stop stop-color="#ec2c43" offset=".23438"/>
   <stop stop-color="#ec2c44" offset=".24219"/>
   <stop stop-color="#ec2c44" offset=".25"/>
   <stop stop-color="#ec2c44" offset=".25781"/>
   <stop stop-color="#ec2c44" offset=".26562"/>
   <stop stop-color="#eb2b45" offset=".27344"/>
   <stop stop-color="#eb2b45" offset=".28125"/>
   <stop stop-color="#eb2b45" offset=".28906"/>
   <stop stop-color="#eb2b46" offset=".29688"/>
   <stop stop-color="#ea2b46" offset=".30469"/>
   <stop stop-color="#ea2b46" offset=".3125"/>
   <stop stop-color="#ea2a46" offset=".32031"/>
   <stop stop-color="#ea2a47" offset=".32812"/>
   <stop stop-color="#ea2a47" offset=".33594"/>
   <stop stop-color="#e92a47" offset=".34375"/>
   <stop stop-color="#e92a47" offset=".35156"/>
   <stop stop-color="#e92948" offset=".35938"/>
   <stop stop-color="#e92948" offset=".36719"/>
   <stop stop-color="#e92948" offset=".375"/>
   <stop stop-color="#e82949" offset=".38281"/>
   <stop stop-color="#e82949" offset=".39062"/>
   <stop stop-color="#e82949" offset=".39844"/>
   <stop stop-color="#e82849" offset=".40625"/>
   <stop stop-color="#e8284a" offset=".41406"/>
   <stop stop-color="#e7284a" offset=".42188"/>
   <stop stop-color="#e7284a" offset=".42969"/>
   <stop stop-color="#e7284a" offset=".4375"/>
   <stop stop-color="#e7274b" offset=".44531"/>
   <stop stop-color="#e7274b" offset=".45312"/>
   <stop stop-color="#e6274b" offset=".46094"/>
   <stop stop-color="#e6274b" offset=".46875"/>
   <stop stop-color="#e6274c" offset=".47656"/>
   <stop stop-color="#e6274c" offset=".48438"/>
   <stop stop-color="#e6264c" offset=".49219"/>
   <stop stop-color="#e5264c" offset=".5"/>
   <stop stop-color="#e5264d" offset=".50781"/>
   <stop stop-color="#e5264d" offset=".51562"/>
   <stop stop-color="#e5264d" offset=".52344"/>
   <stop stop-color="#e4254d" offset=".53125"/>
   <stop stop-color="#e4254e" offset=".53906"/>
   <stop stop-color="#e4254e" offset=".54688"/>
   <stop stop-color="#e4254e" offset=".55469"/>
   <stop stop-color="#e4254e" offset=".5625"/>
   <stop stop-color="#e3254f" offset=".57031"/>
   <stop stop-color="#e3244f" offset=".57812"/>
   <stop stop-color="#e3244f" offset=".58594"/>
   <stop stop-color="#e3244f" offset=".59375"/>
   <stop stop-color="#e32450" offset=".60156"/>
   <stop stop-color="#e22450" offset=".60938"/>
   <stop stop-color="#e22450" offset=".61719"/>
   <stop stop-color="#e22350" offset=".625"/>
   <stop stop-color="#e22351" offset=".63281"/>
   <stop stop-color="#e22351" offset=".64062"/>
   <stop stop-color="#e12351" offset=".64844"/>
   <stop stop-color="#e12351" offset=".65625"/>
   <stop stop-color="#e12252" offset=".66406"/>
   <stop stop-color="#e12252" offset=".67188"/>
   <stop stop-color="#e12252" offset=".67969"/>
   <stop stop-color="#e02252" offset=".6875"/>
   <stop stop-color="#e02253" offset=".69531"/>
   <stop stop-color="#e02253" offset=".70312"/>
   <stop stop-color="#e02153" offset=".71094"/>
   <stop stop-color="#e02153" offset=".71875"/>
   <stop stop-color="#df2154" offset=".72656"/>
   <stop stop-color="#df2154" offset=".73438"/>
   <stop stop-color="#df2154" offset=".74219"/>
   <stop stop-color="#df2154" offset=".75"/>
   <stop stop-color="#df2054" offset=".75781"/>
   <stop stop-color="#de2055" offset=".76562"/>
   <stop stop-color="#de2055" offset=".77344"/>
   <stop stop-color="#de2055" offset=".78125"/>
   <stop stop-color="#de2055" offset=".78906"/>
   <stop stop-color="#de1f56" offset=".79688"/>
   <stop stop-color="#dd1f56" offset=".80469"/>
   <stop stop-color="#dd1f56" offset=".8125"/>
   <stop stop-color="#dd1f56" offset=".82031"/>
   <stop stop-color="#dd1f57" offset=".82812"/>
   <stop stop-color="#dd1f57" offset=".83594"/>
   <stop stop-color="#dc1e57" offset=".84375"/>
   <stop stop-color="#dc1e57" offset=".85156"/>
   <stop stop-color="#dc1e57" offset=".85938"/>
   <stop stop-color="#dc1e58" offset=".86719"/>
   <stop stop-color="#dc1e58" offset=".875"/>
   <stop stop-color="#db1e58" offset=".88281"/>
   <stop stop-color="#db1d58" offset=".89062"/>
   <stop stop-color="#db1d59" offset=".89844"/>
   <stop stop-color="#db1d59" offset=".90625"/>
   <stop stop-color="#db1d59" offset=".91406"/>
   <stop stop-color="#da1d59" offset=".92188"/>
   <stop stop-color="#da1d59" offset=".92969"/>
   <stop stop-color="#da1c5a" offset=".9375"/>
   <stop stop-color="#da1c5a" offset=".94531"/>
   <stop stop-color="#da1c5a" offset=".95312"/>
   <stop stop-color="#d91c5a" offset=".96094"/>
   <stop stop-color="#d91c5a" offset=".96875"/>
   <stop stop-color="#d91b5b" offset=".97656"/>
   <stop stop-color="#d91b5b" offset=".98438"/>
   <stop stop-color="#d91b5b" offset=".99219"/>
   <stop stop-color="#d81b5b" offset="1"/>
  </linearGradient>
  <clipPath id="clip7">
   <path d="m20 17h18v13h-18z"/>
  </clipPath>
  <clipPath id="clip8">
   <path d="m37.109 25.781-14.598-8.2969c-.85547-.48438-1.6172-.42578-2.0781.0625l12.453 12.453z"/>
  </clipPath>
  <clipPath id="clip9">
   <path d="m37.109 25.781-14.598-8.2969c-.85547-.48438-1.6172-.42578-2.0781.0625l12.453 12.453 4.2227-4.2188"/>
  </clipPath>
  <linearGradient id="linear2" x1=".55464" x2="1.3538" gradientTransform="matrix(18.566 18.566 -18.566 18.566 11.974 4.8658)" gradientUnits="userSpaceOnUse">
   <stop stop-color="#5aba5e" offset="0"/>
   <stop stop-color="#5abb5e" offset=".015625"/>
   <stop stop-color="#5bbb5e" offset=".03125"/>
   <stop stop-color="#5bbc5e" offset=".046875"/>
   <stop stop-color="#5cbc5e" offset=".0625"/>
   <stop stop-color="#5dbd5d" offset=".078125"/>
   <stop stop-color="#5dbd5d" offset=".09375"/>
   <stop stop-color="#5ebe5d" offset=".10938"/>
   <stop stop-color="#5fbe5d" offset=".125"/>
   <stop stop-color="#5fbe5c" offset=".14062"/>
   <stop stop-color="#60bf5c" offset=".15625"/>
   <stop stop-color="#60bf5c" offset=".17188"/>
   <stop stop-color="#61c05c" offset=".1875"/>
   <stop stop-color="#61c05b" offset=".20312"/>
   <stop stop-color="#62c15b" offset=".21875"/>
   <stop stop-color="#63c15b" offset=".23438"/>
   <stop stop-color="#63c15b" offset=".25"/>
   <stop stop-color="#64c25b" offset=".26562"/>
   <stop stop-color="#64c25a" offset=".28125"/>
   <stop stop-color="#65c35a" offset=".29688"/>
   <stop stop-color="#65c35a" offset=".3125"/>
   <stop stop-color="#66c35a" offset=".32812"/>
   <stop stop-color="#66c45a" offset=".34375"/>
   <stop stop-color="#67c459" offset=".375"/>
   <stop stop-color="#68c559" offset=".40625"/>
   <stop stop-color="#69c659" offset=".4375"/>
   <stop stop-color="#6ac658" offset=".46875"/>
   <stop stop-color="#6ac758" offset=".5"/>
   <stop stop-color="#6bc758" offset="1"/>
  </linearGradient>
 </defs>
 <g transform="translate(-10,-10)">
  <path d="m140 50h-125c-2.75 0-5-2.25-5-5v-30c0-2.75 2.25-5 5-5h125c2.75 0 5 2.25 5 5v30c0 2.75-2.25 5-5 5" fill="#0f0c0c"/>
  <path d="m140 10h-125c-2.75 0-5 2.25-5 5v30c0 2.75 2.25 5 5 5h125c2.75 0 5-2.25 5-5v-30c0-2.75-2.25-5-5-5zm0 .80078c2.3164 0 4.1992 1.8828 4.1992 4.1992v30c0 2.3164-1.8828 4.1992-4.1992 4.1992h-125c-2.3164 0-4.1992-1.8828-4.1992-4.1992v-30c0-2.3164 1.8828-4.1992 4.1992-4.1992h125" fill="#a1a1a1"/>
  <g fill="#fff">
   <path d="m57.418 20.242c0 .83984-.24609 1.5078-.74609 2.0039-.5625.59375-1.2969.88672-2.2031.88672-.86719 0-1.6016-.29687-2.207-.89844s-.91016-1.3477-.91016-2.2344c0-.89062.30469-1.6328.91016-2.2344s1.3398-.89844 2.207-.89844c.42969 0 .83984.08203 1.2305.25.39062.16797.70703.39062.94141.67187l-.52734.52734c-.39844-.47656-.94531-.71484-1.6445-.71484-.63281 0-1.1758.22266-1.6367.66797-.46094.44531-.69141 1.0195-.69141 1.7305s.23047 1.2852.69141 1.7305c.46094.44531 1.0039.66797 1.6367.66797.67188 0 1.2305-.22656 1.6758-.67188.28906-.29297.45703-.69531.50391-1.2148h-2.1797v-.72266h2.9062c.03125.16016.04297.30859.04297.45313"/>
   <path d="m57.418 20.242h-.09766c-.0039.82031-.24219 1.457-.71875 1.9336-.54687.57422-1.25.85547-2.1328.85938-.84375-.003906-1.5469-.28906-2.1367-.87109-.58984-.58594-.87891-1.2969-.87891-2.1641s.28906-1.5781.87891-2.1602c.58984-.58594 1.293-.87109 2.1367-.875.41797 0 .8125.08203 1.1914.24609.37891.16016.67969.375.90234.64062l.07813-.0625-.07031-.07031-.53125.52734.07422.07031.07421-.066406c-.41406-.49609-.99609-.74609-1.7188-.74609-.65625 0-1.2305.23438-1.707.69531-.48047.46094-.72266 1.0703-.72266 1.8008s.24219 1.3398.72266 1.8008c.47656.46094 1.0508.69531 1.707.69531.69141 0 1.2812-.23438 1.7461-.69922.3125-.3125.48828-.74219.53125-1.2773l.01172-.10938h-2.1875v-.51953h2.8047v-.10156l-.09766.01953c.02734.15234.04297.29688.04297.43359h.19922c0-.15234-.01563-.30859-.04297-.46875l-.01562-.08203h-3.0938v.91797h2.2812v-.09766l-.10156-.0078c-.04297.50391-.20312.88281-.47266 1.1523-.42969.42969-.95703.64062-1.6055.64062-.60938 0-1.125-.21094-1.5703-.63672-.4375-.4297-.66016-.97266-.66016-1.6602s.22266-1.2305.66016-1.6602c.44531-.42578.96094-.63672 1.5703-.63672.67578.0039 1.1875.22656 1.5664.67578l.07031.08594.60547-.60547.0625-.06641-.05859-.07031c-.24609-.29297-.57031-.52344-.97656-.69531-.40234-.17578-.82812-.26172-1.2695-.26172-.88672 0-1.6562.3125-2.2773.92969-.625.61719-.94141 1.3945-.9375 2.3047-.0039.91016.3125 1.6875.9375 2.3047.62109.61719 1.3906.92969 2.2773.92969.92578 0 1.6953-.30859 2.2773-.91797l-.07422-.07031.07031.07031c.51953-.51562.77734-1.2148.77734-2.0742h-.10156"/>
   <path d="m62.027 17.738h-2.7305v1.9023h2.4609v.71875h-2.4609v1.9023h2.7305v.73828h-3.5039v-6h3.5039v.73828"/>
   <path d="m62.027 17.738v-.10156h-2.832v2.1016h2.4648v.52344h-2.4648v2.1016h2.7305v.53516h-3.3008v-5.7969h3.3008v.63672h.10156v-.10156.10156h.10156v-.83984h-3.7031v6.2031h3.7031v-.9375h-2.7344v-1.7031h2.4648v-.92188h-2.4648v-1.7031h2.7344v-.09766h-.10156"/>
   <path d="m65.277 23h-.76953v-5.2617h-1.6758v-.73828h4.1211v.73828h-1.6758v5.2617"/>
   <path d="m65.277 23v-.10156h-.67188v-5.2617h-1.6758v-.53516h3.9258v.53516h-1.6758v5.3633h.09766v-.10156.10156h.10156v-5.1641h1.6758v-.9375h-4.3242v.9375h1.6758v5.2656h.97266v-.10156h-.10156"/>
   <path d="m69.938 23v-6h.76953v6h-.76953"/>
   <path d="m69.938 23h.10156v-5.8984h.57031v5.7969h-.67188v.10156h.10156-.10156v.10156h.87109v-6.2031h-.96875v6.2031h.097656v-.10156"/>
   <path d="m74.129 23h-.77344v-5.2617h-1.6758v-.73828h4.125v.73828h-1.6758v5.2617"/>
   <path d="m74.129 23v-.10156h-.67188v-5.2617h-1.6758v-.53516h3.9219v.53516h-1.6758v5.3633h.10156v-.10156.10156h.09766v-5.1641h1.6797v-.9375h-4.3242v.9375h1.6758v5.2656h.96875v-.10156h-.09766"/>
   <path d="m79.781 21.723c.44141.44922.98438.67578 1.6289.67578.64062 0 1.1836-.22656 1.6289-.67578.44531-.44922.66797-1.0234.66797-1.7227s-.22266-1.2734-.66797-1.7227c-.44531-.44922-.98828-.67578-1.6289-.67578-.64453 0-1.1875.22656-1.6289.67578-.44531.44922-.66797 1.0234-.66797 1.7227s.22266 1.2734.66797 1.7227zm3.8281.5c-.58984.60938-1.3242.91016-2.1992.91016-.87891 0-1.6133-.30078-2.1992-.91016-.58984-.60547-.88281-1.3438-.88281-2.2227s.29297-1.6172.88281-2.2227c.58594-.60938 1.3203-.91016 2.1992-.91016.87109 0 1.6016.30469 2.1953.91406.59375.60547.88672 1.3477.88672 2.2188 0 .87891-.29297 1.6172-.88281 2.2227"/>
   <path d="m79.781 21.723-.07422.07031c.46094.46875 1.0352.70312 1.7031.70312.66406 0 1.2422-.23438 1.6992-.70312.46484-.46875.69922-1.0742.69531-1.793.0039-.71875-.23047-1.3242-.69531-1.793-.45703-.46875-1.0352-.70312-1.6992-.70312-.66797 0-1.2422.23438-1.7031.70312-.46094.46875-.69531 1.0742-.69531 1.793s.23438 1.3242.69531 1.793l.07422-.07031.07031-.07031c-.42578-.4336-.63672-.97656-.63672-1.6523s.21094-1.2188.63672-1.6523c.42578-.42969.9375-.64453 1.5586-.64453.61719 0 1.1289.21484 1.5586.64453.42578.43359.63672.97656.63672 1.6523s-.21094 1.2188-.63672 1.6523c-.42969.42969-.94141.64453-1.5586.64453-.62109 0-1.1328-.21484-1.5586-.64453zm3.8281.5-.07031-.06641c-.57422.58594-1.2773.875-2.1289.87891-.85547-.0039-1.5547-.29297-2.1289-.87891l-.0039-.0039.0039.0039c-.57032-.58984-.85547-1.3008-.85547-2.1562s.28516-1.5664.85547-2.1562c.57422-.58594 1.2734-.875 2.1289-.87891.84766.0039 1.5469.29297 2.125.88281.57422.59375.85547 1.3047.85938 2.1523-.0039.85547-.28516 1.5664-.85547 2.1562l.07031.06641.07031.07031c.60938-.6211.91407-1.3945.91407-2.293 0-.89453-.30859-1.6641-.91797-2.2891-.60938-.62891-1.3711-.94531-2.2656-.94531-.90234 0-1.668.31641-2.2734.94141-.60547.62109-.91016 1.3945-.91016 2.293s.30469 1.6719.91016 2.293l.0039.0039-.0039-.0039c.60547.625 1.3711.94141 2.2734.94141.89844 0 1.6641-.31641 2.2695-.94141l-.07031-.07031"/>
   <path d="m85.574 23v-6h.94141l2.9141 4.668h.03516l-.03516-1.1562v-3.5117h.77344v6h-.80469l-3.0547-4.8945h-.03125l.03125 1.1562v3.7383h-.76953"/>
   <path d="m85.574 23h.10156v-5.8984h.78125l2.918 4.668h.19141l-.03516-1.2578v-3.4102h.57031v5.7969h-.64844l-3.0508-4.8906h-.19141l.03516 1.2578v3.6328h-.67188v.10156h.10156-.10156v.10156h.87109v-3.8398l-.03125-1.1602-.10156.0039v.10156h.03125v-.10156l-.08203.05469 3.0781 4.9414h.96094v-6.2031h-.97266v3.6133l.03516 1.1602.10156-.0039v-.10156h-.03516v.10156l.08594-.05469-2.9453-4.7148h-1.0938v6.2031h.09766v-.10156"/>
   <path d="m116.94 40h1.8633v-12.5h-1.8633zm16.805-7.9961-2.1367 5.418h-.0664l-2.2188-5.418h-2.0117l3.332 7.5742-1.8984 4.2109h1.9453l5.1289-11.785zm-10.582 6.5781c-.60938 0-1.4648-.30859-1.4648-1.0625 0-.96484 1.0625-1.3359 1.9805-1.3359.82031 0 1.207.17578 1.7031.41797-.14453 1.1602-1.1406 1.9805-2.2188 1.9805zm.22656-6.8555c-1.3516 0-2.75.59766-3.3281 1.918l1.6562.69141c.35157-.69141 1.0117-.91797 1.7031-.91797.96484 0 1.9453.57812 1.9609 1.6094v.12891c-.33594-.19531-1.0586-.48438-1.9453-.48438-1.7852 0-3.6016.98047-3.6016 2.8125 0 1.6758 1.4648 2.7539 3.1016 2.7539 1.2578 0 1.9492-.56641 2.3828-1.2227h.0625v.96484h1.8008v-4.793c0-2.2188-1.6562-3.4609-3.793-3.4609zm-11.531 1.7969h-2.6562v-4.2852h2.6562c1.3945 0 2.1836 1.1562 2.1836 2.1445 0 .96875-.78906 2.1406-2.1836 2.1406zm-.05078-6.0234h-4.4688v12.5h1.8633v-4.7344h2.6055c2.0703 0 4.1016-1.5 4.1016-3.8828 0-2.3867-2.0312-3.8828-4.1016-3.8828zm-24.379 11.082c-1.2891 0-2.3711-1.0781-2.3711-2.5625 0-1.4961 1.082-2.5938 2.3711-2.5938 1.2734 0 2.2695 1.0977 2.2695 2.5938 0 1.4844-.99609 2.5625-2.2695 2.5625zm2.1406-5.8789h-.0625c-.41797-.5-1.2266-.95312-2.2383-.95312-2.1289 0-4.0781 1.8711-4.0781 4.2695 0 2.3867 1.9492 4.2383 4.0781 4.2383 1.0117 0 1.8203-.45312 2.2383-.96484h.0625v.60938c0 1.6289-.86719 2.5-2.2695 2.5-1.1445 0-1.8516-.82422-2.1445-1.5156l-1.625.67578c.46484 1.1289 1.707 2.5156 3.7695 2.5156 2.1914 0 4.043-1.293 4.043-4.4336v-7.6367h-1.7734zm3.0625 7.2969h1.8672v-12.5h-1.8672zm4.625-4.125c-.05078-1.6445 1.2695-2.4805 2.2227-2.4805.74219 0 1.3672.37109 1.5781.90234zm5.7969-1.418c-.35156-.94922-1.4336-2.707-3.6406-2.707-2.1914 0-4.0117 1.7266-4.0117 4.2539 0 2.3867 1.8047 4.2539 4.2227 4.2539 1.9492 0 3.0781-1.1914 3.543-1.8867l-1.4492-.96484c-.48437.70703-1.1445 1.1758-2.0937 1.1758-.95312 0-1.6289-.43359-2.0625-1.2891l5.6875-2.3516zm-45.309-1.4023v1.8047h4.3203c-.12891 1.0156-.46875 1.7578-.98438 2.2734-.62891.62891-1.6094 1.3203-3.3359 1.3203-2.6562 0-4.7344-2.1406-4.7344-4.8008 0-2.6562 2.0781-4.8008 4.7344-4.8008 1.4336 0 2.4805.5625 3.2539 1.2891l1.2734-1.2734c-1.0781-1.0312-2.5117-1.8203-4.5273-1.8203-3.6406 0-6.6992 2.9648-6.6992 6.6055s3.0586 6.6055 6.6992 6.6055c1.9688 0 3.4492-.64453 4.6094-1.8516 1.1914-1.1914 1.5625-2.8672 1.5625-4.2227 0-.41797-.03125-.80469-.09766-1.1289zm11.082 5.5273c-1.2891 0-2.4023-1.0625-2.4023-2.5781 0-1.5312 1.1133-2.5781 2.4023-2.5781 1.2852 0 2.3984 1.0469 2.3984 2.5781 0 1.5156-1.1133 2.5781-2.3984 2.5781zm0-6.832c-2.3555 0-4.2695 1.7891-4.2695 4.2539 0 2.4492 1.9141 4.2539 4.2695 4.2539 2.3516 0 4.2695-1.8047 4.2695-4.2539 0-2.4648-1.918-4.2539-4.2695-4.2539zm9.3125 6.832c-1.2891 0-2.4023-1.0625-2.4023-2.5781 0-1.5312 1.1133-2.5781 2.4023-2.5781 1.2891 0 2.3984 1.0469 2.3984 2.5781 0 1.5156-1.1094 2.5781-2.3984 2.5781zm0-6.832c-2.3516 0-4.2695 1.7891-4.2695 4.2539 0 2.4492 1.918 4.2539 4.2695 4.2539 2.3516 0 4.2695-1.8047 4.2695-4.2539 0-2.4648-1.918-4.2539-4.2695-4.2539"/>
  </g>
  <path d="m20.434 17.547c-.28906.30859-.46094.78516-.46094 1.4062v22.094c0 .62109.17188 1.0977.46094 1.4062l.07422.07031 12.379-12.379v-.28906l-12.379-12.379-.07422.07031" fill="#70cff5"/>
  <g>
   <g clip-path="url(#clip1)">
    <g clip-path="url(#clip2)">
     <g clip-path="url(#clip3)">
      <path d="m43.395 34.273v-8.5469h-10.508v8.5469z" fill="url(#linear0)"/>
     </g>
    </g>
   </g>
   <g clip-path="url(#clip4)">
    <g clip-path="url(#clip5)">
     <g clip-path="url(#clip6)">
      <path d="m43.609 36.5-14.836-14.836-14.84 14.836 14.84 14.836z" fill="url(#linear1)"/>
     </g>
    </g>
   </g>
   <g clip-path="url(#clip7)">
    <g clip-path="url(#clip8)">
     <g clip-path="url(#clip9)">
      <path d="m28.773 8.6641-14.84 14.836 14.84 14.836 14.836-14.836z" fill="url(#linear2)"/>
     </g>
    </g>
   </g>
  </g>
 </g>
</svg>
