<?xml version="1.0" encoding="utf-8"?>
<svg viewBox="213.529 108.852 87.682 87.682" width="87.682px" height="87.682px" xmlns="http://www.w3.org/2000/svg" xmlns:xlink="http://www.w3.org/1999/xlink">
  <defs>
    <radialGradient id="gradient-2-0" gradientUnits="userSpaceOnUse" cx="279.193" cy="541.933" r="43.841" gradientTransform="matrix(1.200807, 1.899144, -1.795316, 1.135158, 921.123652, -602.088018)">
    <stop offset="0" style="stop-color:rgba(0, 0, 0, 0.15);"/>
      <stop style="stop-color:rgba(0, 0, 0, 0.83);" offset="1"/>
    </radialGradient>
  </defs>
  <circle style="fill: rgb(131, 59, 255);" transform="matrix(1, 0, 0, 1.000001, -64.395736, -410.839658)" cx="321.766" cy="563.532" r="43.841"/>
  <circle style="fill: url(#gradient-2-0);" transform="matrix(1, 0, 0, 1.000001, -64.395736, -410.839658)" cx="321.766" cy="563.532" r="43.841"/>
  <g transform="matrix(0.750565, 0.528654, -0.31561, 1.04835, 93.262435, -140.406707)" style="">
    <rect x="237.157" y="137.73" width="40.952" height="30.19" style="stroke: rgb(0, 0, 0); stroke-width: 2px; fill: rgb(255, 255, 255);" rx="9.451" ry="9.451"/>
    <path d="M 243.405 157.669 C 243.212 157.449 243.058 157.212 242.945 156.959 C 242.832 156.712 242.742 156.482 242.675 156.269 C 242.602 156.022 242.552 155.776 242.525 155.529 L 248.935 143.169 C 249.375 143.269 249.788 143.379 250.175 143.499 C 250.502 143.599 250.822 143.722 251.135 143.869 C 251.448 144.016 251.678 144.176 251.825 144.349 L 251.835 144.549 C 251.288 145.476 250.725 146.449 250.145 147.469 C 249.898 147.902 249.632 148.372 249.345 148.879 C 249.058 149.379 248.758 149.896 248.445 150.429 C 248.138 150.969 247.825 151.522 247.505 152.089 C 247.185 152.662 246.872 153.236 246.565 153.809 L 245.205 155.559 L 250.935 155.559 L 250.935 151.839 C 251.255 151.606 251.595 151.422 251.955 151.289 C 252.315 151.156 252.648 151.052 252.955 150.979 C 253.322 150.906 253.678 150.859 254.025 150.839 L 254.025 155.559 L 256.285 155.559 C 256.292 155.626 256.298 155.696 256.305 155.769 C 256.318 155.829 256.325 155.892 256.325 155.959 C 256.332 156.032 256.335 156.099 256.335 156.159 C 256.335 156.359 256.312 156.582 256.265 156.829 C 256.212 157.069 256.102 157.349 255.935 157.669 L 254.025 157.669 L 254.025 162.669 L 250.935 162.669 L 250.935 157.669 L 243.405 157.669 ZM 265.088 162.939 C 263.908 162.939 262.894 162.722 262.048 162.289 C 261.201 161.849 260.504 161.216 259.958 160.389 C 259.411 159.569 259.004 158.566 258.738 157.379 C 258.471 156.192 258.338 154.856 258.338 153.369 C 258.338 151.922 258.478 150.609 258.758 149.429 C 259.038 148.249 259.458 147.242 260.018 146.409 C 260.578 145.576 261.281 144.932 262.128 144.479 C 262.968 144.026 263.954 143.799 265.088 143.799 C 266.281 143.799 267.298 144.006 268.138 144.419 C 268.984 144.839 269.674 145.446 270.208 146.239 C 270.734 147.032 271.121 148.006 271.368 149.159 C 271.614 150.319 271.738 151.642 271.738 153.129 C 271.738 154.576 271.608 155.902 271.348 157.109 C 271.081 158.309 270.678 159.342 270.138 160.209 C 269.591 161.076 268.901 161.749 268.068 162.229 C 267.228 162.702 266.234 162.939 265.088 162.939 Z M 265.068 160.739 C 265.688 160.739 266.218 160.536 266.658 160.129 C 267.091 159.729 267.448 159.182 267.728 158.489 C 268.008 157.802 268.211 156.996 268.338 156.069 C 268.464 155.149 268.528 154.169 268.528 153.129 C 268.528 152.009 268.464 151.006 268.338 150.119 C 268.211 149.232 268.011 148.486 267.738 147.879 C 267.464 147.266 267.108 146.799 266.668 146.479 C 266.228 146.152 265.701 145.989 265.088 145.989 C 264.448 145.989 263.901 146.172 263.448 146.539 C 262.994 146.899 262.628 147.409 262.348 148.069 C 262.068 148.722 261.864 149.502 261.738 150.409 C 261.604 151.309 261.538 152.296 261.538 153.369 C 261.538 154.449 261.604 155.439 261.738 156.339 C 261.864 157.239 262.068 158.016 262.348 158.669 C 262.628 159.322 262.991 159.832 263.438 160.199 C 263.884 160.559 264.428 160.739 265.068 160.739 Z" transform="matrix(1, 0, 0, 1, 0, 0)" style="fill: rgb(51, 51, 51); white-space: pre;"/>
  </g>
</svg>
